<?xml version="1.0" encoding="UTF-8"?>
<svg id="Layer_1" xmlns="http://www.w3.org/2000/svg" version="1.1" viewBox="0 0 708.66 708.66">
  <!-- Generator: Adobe Illustrator 29.8.1, SVG Export Plug-In . SVG Version: 2.1.1 Build 2)  -->
  <defs>
    <style>
      .st0 {
        fill: #231f20;
      }
    </style>
  </defs>
  <g>
    <path class="st0" d="M172.05,413.18c-1.35,2.71-2.71,4.5-4.06,5.37-1.35.88-3.38,1.32-6.08,1.32h-35.08c-3.24,0-4.87-1.01-4.87-3.04,0-1.22.34-2.43,1.01-3.65l67.93-128.76c2.03-3.92,3.78-6.66,5.27-8.21,1.49-1.55,3.24-2.33,5.27-2.33,1.89,0,3.58.78,5.07,2.33,1.49,1.56,3.31,4.29,5.47,8.21l67.93,128.76c.67,1.22,1.01,2.43,1.01,3.65,0,2.03-1.62,3.04-4.87,3.04h-36.5c-2.71,0-4.73-.44-6.08-1.32-1.35-.88-2.71-2.67-4.06-5.37l-28.79-57.79-28.59,57.79Z"/>
    <path class="st0" d="M292.28,277.93h35.48c4.06,0,6.08,2.03,6.08,6.08v39.13c0,1.35.27,2.3.81,2.84.54.54,1.49.81,2.84.81h29.6c1.49,0,2.46-.27,2.94-.81.47-.54.71-1.49.71-2.84v-39.13c0-4.06,2.03-6.08,6.08-6.08h35.48c4.06,0,6.08,2.03,6.08,6.08v129.77c0,4.06-2.03,6.08-6.08,6.08h-35.48c-4.06,0-6.08-2.03-6.08-6.08v-41.16c0-1.49-.24-2.46-.71-2.94-.48-.47-1.45-.71-2.94-.71h-29.6c-1.35,0-2.3.24-2.84.71-.54.48-.81,1.45-.81,2.94v41.16c0,4.06-2.03,6.08-6.08,6.08h-35.48c-4.06,0-6.08-2.03-6.08-6.08v-129.77c0-4.06,2.03-6.08,6.08-6.08Z"/>
    <path class="st0" d="M440.5,310.48c6.62-11.29,15.85-20.04,27.68-26.26,11.83-6.22,25.25-9.33,40.25-9.33s28.66,3.11,40.55,9.33c11.89,6.22,21.15,14.97,27.78,26.26,6.62,11.29,9.94,24.16,9.94,38.63s-3.31,27.27-9.94,38.42c-6.62,11.15-15.89,19.84-27.78,26.06-11.9,6.22-25.42,9.33-40.55,9.33s-28.59-3.11-40.35-9.33c-11.76-6.22-20.96-14.9-27.58-26.06-6.62-11.15-9.94-23.96-9.94-38.42s3.31-27.34,9.94-38.63ZM494.13,222.27c1.28-.47,3.28-.71,5.98-.71h17.03c2.7,0,4.7.24,5.98.71,1.28.48,2.87,1.59,4.77,3.35l28.39,24.94c1.62,1.35,2.43,2.64,2.43,3.85,0,1.35-1.08,2.57-3.24,3.65l-15.82,8.31c-2.16.95-3.72,1.42-4.66,1.42-2.03,0-4.12-1.08-6.29-3.24l-20.07-18.25-20.07,18.25c-2.16,2.16-4.26,3.24-6.29,3.24-.95,0-2.5-.47-4.66-1.42l-15.82-8.31c-2.16-1.08-3.24-2.3-3.24-3.65,0-1.22.81-2.5,2.43-3.85l28.39-24.94c1.89-1.76,3.48-2.87,4.76-3.35ZM523.74,376.27c4.53-2.43,8.08-5.98,10.65-10.65,2.57-4.66,3.85-10.17,3.85-16.52s-1.29-11.89-3.85-16.63c-2.57-4.73-6.12-8.35-10.65-10.85-4.53-2.5-9.63-3.75-15.31-3.75s-10.75,1.25-15.21,3.75c-4.46,2.5-7.94,6.12-10.44,10.85-2.5,4.73-3.75,10.27-3.75,16.63s1.25,11.86,3.75,16.52c2.5,4.66,5.98,8.21,10.44,10.65s9.53,3.65,15.21,3.65,10.78-1.22,15.31-3.65Z"/>
  </g>
  <g>
    <path class="st0" d="M170.47,475.41c.59-.42,1.04-.63,1.36-.63.21,0,.43.07.64.21.21.14.4.3.56.49l2.32,2.8c.27.28.4.61.4.98,0,.19-.08.38-.24.59-.16.21-.4.43-.72.66-2.82,2.1-6.01,3.72-9.55,4.86-3.54,1.14-7.26,1.71-11.15,1.71-5.22,0-10-1.07-14.34-3.22-4.34-2.14-7.78-5.13-10.31-8.95-2.53-3.82-3.8-8.11-3.8-12.87s1.26-9.14,3.8-13.01c2.53-3.87,5.99-6.91,10.39-9.13,4.39-2.21,9.31-3.32,14.74-3.32,3.84,0,7.5.58,10.99,1.75,3.49,1.17,6.59,2.75,9.31,4.76.53.33.8.68.8,1.05,0,.33-.16.7-.48,1.12l-2.32,2.73c-.43.51-.85.77-1.28.77-.32,0-.77-.19-1.36-.56-2.29-1.54-4.77-2.75-7.43-3.64-2.66-.89-5.46-1.33-8.39-1.33-3.78,0-7.23.79-10.35,2.38-3.12,1.59-5.58,3.8-7.39,6.65-1.81,2.85-2.72,6.06-2.72,9.65s.89,6.6,2.68,9.44c1.78,2.85,4.23,5.07,7.35,6.68s6.59,2.41,10.43,2.41c6.02,0,11.37-1.68,16.06-5.04Z"/>
    <path class="st0" d="M235.71,477.41c-2,3.24-4.77,5.67-8.31,7.27-3.54,1.61-7.6,2.41-12.19,2.41s-8.32-.77-11.71-2.31c-3.38-1.54-6.03-3.92-7.95-7.14-1.92-3.22-2.88-7.21-2.88-11.96v-26.79c0-.61.13-1.01.4-1.22.27-.21.72-.31,1.36-.31h4.4c.69,0,1.17.1,1.44.31.27.21.4.62.4,1.22v26.37c0,4.8,1.28,8.53,3.84,11.19,2.56,2.66,6.23,3.99,11.03,3.99,3.2,0,5.93-.61,8.19-1.82,2.26-1.21,4-2.95,5.19-5.21,1.2-2.26,1.8-4.95,1.8-8.08v-26.44c0-.61.13-1.01.4-1.22.27-.21.69-.31,1.28-.31h4.47c.69,0,1.17.1,1.44.31.27.21.4.62.4,1.22v26.58c0,4.71-1,8.69-3,11.93Z"/>
    <path class="st0" d="M268.55,479.51c.13.12.39.17.76.17h23.57c.64,0,1.09.1,1.36.31.27.21.4.62.4,1.22v3.57c0,.61-.13,1.01-.4,1.22-.27.21-.72.31-1.36.31h-30.76c-.64,0-1.09-.1-1.36-.31-.27-.21-.4-.62-.4-1.22v-45.89c0-.61.13-1.01.4-1.22.27-.21.72-.31,1.36-.31h4.47c.64,0,1.09.1,1.36.31.27.21.4.62.4,1.22v40.01c0,.28.07.48.2.59Z"/>
    <path class="st0" d="M345.7,443.69c-.27.21-.72.31-1.36.31h-15.02c-.37,0-.63.06-.76.17-.13.12-.2.31-.2.59v40.01c0,.61-.13,1.01-.4,1.22-.27.21-.72.31-1.36.31h-4.47c-.64,0-1.09-.1-1.36-.31-.27-.21-.4-.62-.4-1.22v-40.01c0-.28-.07-.48-.2-.59-.13-.12-.39-.17-.76-.17h-15.02c-.64,0-1.09-.1-1.36-.31-.27-.21-.4-.62-.4-1.22v-3.57c0-.61.13-1.01.4-1.22.27-.21.72-.31,1.36-.31h39.95c.64,0,1.09.1,1.36.31.27.21.4.62.4,1.22v3.57c0,.61-.13,1.01-.4,1.22Z"/>
    <path class="st0" d="M405.03,477.41c-2,3.24-4.77,5.67-8.31,7.27-3.54,1.61-7.6,2.41-12.19,2.41s-8.32-.77-11.71-2.31c-3.38-1.54-6.03-3.92-7.95-7.14-1.92-3.22-2.88-7.21-2.88-11.96v-26.79c0-.61.13-1.01.4-1.22.27-.21.72-.31,1.36-.31h4.4c.69,0,1.17.1,1.44.31.27.21.4.62.4,1.22v26.37c0,4.8,1.28,8.53,3.84,11.19,2.56,2.66,6.23,3.99,11.03,3.99,3.2,0,5.93-.61,8.19-1.82,2.26-1.21,4-2.95,5.19-5.21,1.2-2.26,1.8-4.95,1.8-8.08v-26.44c0-.61.13-1.01.4-1.22.27-.21.69-.31,1.28-.31h4.47c.69,0,1.17.1,1.44.31.27.21.4.62.4,1.22v26.58c0,4.71-1,8.69-3,11.93Z"/>
    <path class="st0" d="M437.27,486.01c-.27.21-.72.31-1.36.31h-4.47c-.64,0-1.09-.1-1.36-.31-.27-.21-.4-.62-.4-1.22v-45.89c0-.61.13-1.01.4-1.22.27-.21.72-.31,1.36-.31h15.26c15.18,0,22.77,5.06,22.77,15.18,0,3.36-.96,6.12-2.88,8.29-1.92,2.17-4.58,3.77-7.99,4.79l13.74,18.61c.43.51.64.96.64,1.33,0,.28-.15.48-.44.59-.29.12-.73.17-1.32.17h-4.71c-.91,0-1.57-.12-2-.35-.43-.23-.93-.75-1.52-1.54l-14.7-20.43c-.32-.37-.48-.7-.48-.98,0-.37.4-.58,1.2-.63,8.04-.75,12.07-3.89,12.07-9.44,0-3.17-1.27-5.49-3.8-6.96-2.53-1.47-6.19-2.2-10.99-2.2h-7.67c-.37,0-.63.06-.76.17-.13.12-.2.34-.2.66v40.15c0,.61-.13,1.01-.4,1.22Z"/>
    <path class="st0" d="M490.24,484.23c-.43.84-.85,1.4-1.28,1.68-.43.28-1.07.42-1.92.42h-4.16c-1.07,0-1.6-.3-1.6-.91,0-.23.13-.63.4-1.19l24.05-44.35c.8-1.44,1.38-2.39,1.76-2.83.37-.44.83-.66,1.36-.66.48,0,.89.22,1.24.66.35.44.92,1.39,1.72,2.83l24.29,44.35c.27.56.4.96.4,1.19,0,.61-.56.91-1.68.91h-4.47c-.85,0-1.48-.14-1.88-.42s-.84-.84-1.32-1.68l-18.46-34.84-18.46,34.84Z"/>
    <path class="st0" d="M559.64,479.51c.13.12.39.17.76.17h23.57c.64,0,1.09.1,1.36.31.27.21.4.62.4,1.22v3.57c0,.61-.13,1.01-.4,1.22-.27.21-.72.31-1.36.31h-30.76c-.64,0-1.09-.1-1.36-.31-.27-.21-.4-.62-.4-1.22v-45.89c0-.61.13-1.01.4-1.22.27-.21.72-.31,1.36-.31h4.47c.64,0,1.09.1,1.36.31.27.21.4.62.4,1.22v40.01c0,.28.07.48.2.59Z"/>
  </g>
</svg>